<?xml version="1.0" encoding="utf-8"?>
<!-- Generator: Adobe Illustrator 16.0.4, SVG Export Plug-In . SVG Version: 6.00 Build 0)  -->
<!DOCTYPE svg PUBLIC "-//W3C//DTD SVG 1.1//EN" "http://www.w3.org/Graphics/SVG/1.1/DTD/svg11.dtd">
<svg version="1.1" id="Warstwa_1" xmlns="http://www.w3.org/2000/svg" xmlns:xlink="http://www.w3.org/1999/xlink" x="0px" y="0px"
	 width="139px" height="173.334px" viewBox="0 0 139 173.334" enable-background="new 0 0 139 173.334" xml:space="preserve">
<g>
	<path fill="#0F0F10" d="M138.334,75.921c0,41.383-27.294,74.914-68.668,74.914C28.292,150.835,1,117.304,1,75.921
		C1,34.55,28.292,1,69.667,1C111.041,1,138.334,34.55,138.334,75.921z"/>
	<path fill="#F3EEEE" d="M119.318,64.95c0,11.514-22.227,1.057-49.652,1.057c-27.422,0-49.653,10.457-49.653-1.057
		c0-21.55,19.014-34.853,49.653-34.977C105.445,29.831,119.318,43.4,119.318,64.95z"/>
	<path fill="#F3EEEE" d="M53.198,130.901c0,0,30.824-2.132,37.073-9.259c3.649-4.071,10.94-0.94,3.585,5.586
		C87.843,132.566,53.198,130.901,53.198,130.901z"/>
	<polygon fill="#0F0F10" points="35.64,149.388 66.543,156.63 108.833,146.526 103.695,169.647 69.667,161.084 36.244,172.416 	"/>
	<path fill="#343433" d="M97.096,55.588c0,1.513-1.979,2.731-4.422,2.731l0,0c-2.441,0-4.419-1.218-4.419-2.731v-8.201
		c0-1.513,1.979-2.741,4.419-2.741l0,0c2.443,0,4.422,1.228,4.422,2.741V55.588z"/>
	<path fill="#343433" d="M50.222,55.588c0,1.513-1.979,2.731-4.422,2.731l0,0c-2.443,0-4.422-1.218-4.422-2.731v-8.201
		c0-1.513,1.979-2.741,4.422-2.741l0,0c2.443,0,4.422,1.228,4.422,2.741V55.588z"/>
</g>
</svg>
